<svg width="80"


 height="80" xmlns="http://www.w3.org/2000/svg">

 



  

<ellipse cx="65" cy="40" rx="10" ry="10" fill="#151c90"/>
<ellipse cx="15" cy="38" rx="12" ry="12" fill="#151c90"/>
<ellipse cx="45" cy="30" rx="17" ry="17" fill="#151c90"/>
<ellipse cx="25" cy="28" rx="10" ry="10" fill="#151c90"/>
<ellipse cx="62" cy="29" rx="4" ry="4" fill="#151c90"/>

 <rect x="16" y="35" width="47" height="15" fill="#151c90"/>

   
   <!-- <line x1="24" x2="14" y1="70" y2="80" stroke="#061230" stroke-width="2"/>
   <line x1="32" x2="22" y1="70" y2="80" stroke="#061230" stroke-width="2"/>
   <line x1="39" x2="29" y1="70" y2="80" stroke="#061230" stroke-width="2"/>
   <line x1="47" x2="37" y1="70" y2="80" stroke="#061230" stroke-width="2"/>
      <line x1="55" x2="45" y1="70" y2="80" stroke="#061230" stroke-width="2"/>
   <line x1="65" x2="54" y1="70" y2="80" stroke="#061230" stroke-width="2"/>
   <line x1="17" x2="7" y1="70" y2="80" stroke="#061230" stroke-width="2"/>

 <line x1="21" x2="11" y1="55" y2="65" stroke="#061230" stroke-width="2"/>
   <line x1="28" x2="18" y1="55" y2="65" stroke="#061230" stroke-width="2"/>
   <line x1="35" x2="25" y1="55" y2="65" stroke="#061230" stroke-width="2"/>
   <line x1="43" x2="33" y1="55" y2="65" stroke="#061230" stroke-width="2"/>
      <line x1="51" x2="41" y1="55" y2="65" stroke="#061230" stroke-width="2"/>
   <line x1="59" x2="49" y1="55" y2="65" stroke="#061230" stroke-width="2"/>
   <line x1="66" x2="56" y1="55" y2="65" stroke="#061230" stroke-width="2"/> -->



   
  

 

 
   



</svg>
